<svg version="1.0" xmlns="http://www.w3.org/2000/svg"
 width="148.000000pt" height="148.000000pt" viewBox="0 0 148.000000 148.000000"
 preserveAspectRatio="xMidYMid meet">

<g transform="translate(0.000000,148.000000) scale(0.100000,-0.100000)"
fill="#000000" stroke="none">
<path d="M651 1460 c-47 -10 -101 -26 -120 -34 -20 -8 -56 -20 -81 -27 -34 -8
-57 -24 -98 -68 -122 -131 -112 -124 -156 -118 -58 8 -96 -2 -96 -24 0 -16 8
-19 45 -19 25 0 45 -3 45 -7 0 -5 -19 -33 -40 -63 -54 -73 -96 -161 -116 -240
-9 -36 -20 -69 -25 -74 -26 -27 13 -466 41 -466 5 0 7 -6 5 -12 -8 -20 67
-154 110 -199 54 -58 139 -109 178 -109 32 1 31 1 -19 28 -32 17 -70 49 -99
85 -25 31 -49 57 -53 57 -14 0 -33 43 -59 128 -48 165 -56 207 -60 334 -4 115
-2 135 21 208 15 45 26 99 26 120 0 34 8 49 65 112 36 39 65 75 65 80 0 11 27
10 72 -2 33 -10 138 -92 138 -109 0 -4 -26 -5 -58 -3 -49 3 -65 0 -94 -19 -35
-23 -100 -107 -112 -145 -9 -29 14 -109 49 -173 36 -65 123 -128 155 -111 33
18 36 10 5 -16 -27 -23 -27 -24 -5 -14 14 7 37 24 52 38 15 14 30 23 34 20 9
-10 -7 -78 -20 -78 -8 0 -8 -2 0 -8 13 -8 6 -84 -7 -77 -11 7 -22 -37 -16 -62
3 -10 5 -4 6 15 1 21 6 32 16 32 9 0 16 14 20 38 3 20 9 60 14 87 6 34 5 52
-2 57 -13 8 -2 23 16 23 6 0 17 23 23 50 6 28 23 68 37 89 15 21 27 46 27 55
0 9 9 35 19 58 16 35 23 41 42 36 18 -5 21 -3 16 11 -9 22 -50 75 -58 75 -4 1
-3 -15 1 -34 4 -20 4 -35 -1 -35 -5 0 -9 6 -10 13 0 6 -4 3 -8 -8 -8 -19 -11
-17 -50 21 -22 23 -41 49 -41 58 0 18 11 21 27 5 6 -6 23 -9 39 -7 24 2 29 7
27 26 -2 13 1 21 7 17 16 -10 12 5 -10 32 l-20 26 0 -37 c0 -26 -4 -36 -16
-36 -26 0 -53 19 -69 49 -11 21 -30 34 -72 49 -86 30 -123 46 -123 52 0 3 16
22 36 44 19 21 42 49 51 62 8 13 27 27 42 31 14 3 46 15 70 26 37 16 57 18
120 13 138 -11 162 -17 159 -35 -2 -9 -13 -17 -26 -19 -16 -2 -22 -10 -22 -27
0 -33 -37 -130 -56 -146 -10 -8 -13 -21 -8 -41 4 -22 1 -33 -13 -44 -17 -14
-17 -15 3 -9 15 4 24 -1 32 -19 13 -29 -2 -45 -17 -19 -9 17 -10 17 -17 0 -4
-13 2 -27 22 -48 32 -33 42 -35 70 -14 18 14 17 14 -15 8 -26 -5 -33 -3 -29 8
2 8 14 15 26 17 17 3 22 10 22 35 1 43 21 97 52 138 15 19 29 48 33 64 3 17
16 51 27 76 20 46 21 47 61 41 29 -4 38 -2 33 6 -4 7 -14 12 -22 12 -20 0 -18
14 6 35 16 14 25 16 43 8 37 -18 118 -95 113 -108 -2 -7 4 -21 14 -30 10 -9
20 -29 24 -46 3 -16 11 -29 18 -29 15 0 68 -72 68 -92 -1 -7 -10 4 -21 25 -17
31 -39 50 -39 32 0 -10 27 -59 61 -110 19 -27 45 -84 57 -125 13 -41 32 -97
43 -125 35 -92 51 -189 59 -364 8 -168 8 -174 -15 -220 -24 -48 -75 -192 -75
-210 0 -30 21 -4 45 57 15 37 39 92 53 122 30 62 31 71 14 360 -16 254 -18
277 -41 314 -12 18 -21 39 -21 45 0 6 -16 34 -35 62 -19 28 -42 76 -51 107 -9
31 -25 75 -35 97 -28 58 -126 178 -181 221 -47 36 -59 54 -36 54 24 0 -3 13
-34 17 -110 12 -219 10 -297 -7z m135 -12 c-11 -57 -16 -61 -70 -54 -126 17
-152 22 -126 28 14 3 61 15 105 25 44 11 83 21 88 22 4 0 5 -9 3 -21z m112 7
c8 -7 -62 -65 -74 -61 -15 6 -19 57 -7 70 7 6 73 -1 81 -9z m-98 -109 c0 -13
-7 -26 -15 -30 -16 -6 -18 -2 -9 32 8 29 24 28 24 -2z m-63 -78 c-3 -8 -6 -5
-6 6 -1 11 2 17 5 13 3 -3 4 -12 1 -19z m-293 -276 c36 -19 56 -40 73 -71 l23
-45 -30 -65 c-48 -101 -115 -161 -182 -161 -34 0 -88 47 -88 77 0 10 -3 27 -6
39 -5 17 3 26 41 48 39 23 46 32 43 54 -2 20 -13 32 -41 46 l-38 18 23 25 c28
30 86 62 113 62 11 0 42 -12 69 -27z m-168 -117 c9 -21 -14 -45 -42 -45 -16 0
-24 6 -24 18 0 37 54 59 66 27z m1064 -58 c0 -18 -2 -19 -10 -7 -13 20 -13 43
0 35 6 -3 10 -16 10 -28z m-880 -162 c-13 -14 -28 -25 -34 -25 -5 0 3 13 19
30 16 16 31 28 33 25 3 -3 -5 -16 -18 -30z m-370 -375 c0 -5 -2 -10 -4 -10 -3
0 -8 5 -11 10 -3 6 -1 10 4 10 6 0 11 -4 11 -10z"/>
<path d="M320 684 c0 -8 5 -12 10 -9 6 3 10 10 10 16 0 5 -4 9 -10 9 -5 0 -10
-7 -10 -16z"/>
<path d="M886 1213 c-8 -16 -29 -41 -46 -57 -50 -46 -74 -102 -74 -173 -1 -44
-5 -63 -13 -63 -20 0 -15 -38 6 -50 14 -7 21 -6 24 3 2 7 16 0 36 -21 18 -17
37 -32 43 -32 6 0 9 -2 7 -5 -3 -2 -29 4 -57 15 -42 16 -61 18 -93 11 -23 -5
-47 -7 -55 -4 -7 2 -32 -13 -54 -34 -61 -56 -109 -184 -120 -318 -5 -55 -15
-120 -23 -145 -22 -68 -79 -190 -88 -190 -5 0 -9 -4 -9 -10 0 -41 298 -95 313
-56 3 7 18 17 34 21 29 7 133 67 156 89 7 7 24 19 37 26 14 7 42 26 63 43 21
16 41 27 44 23 4 -4 -4 -14 -18 -23 -13 -9 -43 -36 -67 -60 -24 -24 -50 -43
-58 -43 -8 0 -13 -4 -9 -9 7 -12 65 20 65 36 0 7 7 10 15 7 9 -4 15 0 15 8 0
24 99 98 131 98 48 0 118 23 140 46 32 34 38 155 11 217 -17 38 -18 47 -6 47
8 0 22 -16 31 -35 9 -19 20 -35 25 -35 4 0 8 -32 8 -72 0 -39 3 -68 8 -64 4 4
7 35 8 69 0 34 4 73 8 85 7 21 0 32 -48 78 -30 30 -60 54 -66 54 -6 0 11 -21
39 -47 27 -27 53 -58 56 -70 10 -36 -8 -27 -33 17 -12 22 -52 61 -87 87 -35
27 -64 51 -65 55 0 4 20 13 45 19 52 13 55 32 6 37 l-32 3 35 40 c30 32 36 47
36 82 0 24 -7 52 -15 63 -8 10 -15 25 -15 33 0 25 -80 138 -130 185 -45 42
-54 46 -99 46 -45 0 -52 -3 -65 -27z m134 -28 c0 -8 -5 -15 -10 -15 -6 0 -18
-15 -27 -34 -22 -47 -5 -91 39 -100 48 -9 65 -7 83 10 22 23 40 5 60 -61 21
-66 15 -97 -30 -142 -31 -31 -37 -33 -106 -33 -108 0 -177 41 -227 137 -29 54
-4 124 70 196 54 52 63 57 104 57 32 0 44 -4 44 -15z m40 -37 c0 -6 10 -22 22
-35 20 -22 21 -24 5 -40 -13 -13 -23 -15 -43 -7 -39 13 -51 37 -34 68 13 26
50 36 50 14z m-404 -341 c-10 -7 -32 -23 -47 -35 -16 -13 -29 -19 -29 -14 0
16 59 62 78 61 15 0 15 -2 -2 -12z m106 -32 c9 -35 3 -43 -37 -51 -26 -5 -33
-1 -48 25 -17 29 -17 30 5 46 35 24 70 16 80 -20z m79 15 c10 -6 19 -17 19
-25 0 -20 -19 -19 -27 0 -3 9 -15 15 -26 13 -11 -2 -22 3 -24 10 -6 15 31 16
58 2z m269 -18 c18 -7 2 -9 -63 -6 -48 2 -95 7 -104 12 -22 13 134 7 167 -6z
m-447 -42 c6 -16 15 -30 19 -30 4 0 8 -9 8 -20 0 -11 -4 -20 -10 -20 -5 0 -10
-12 -11 -27 0 -16 -3 -21 -6 -13 -2 8 -7 21 -9 29 -4 11 -7 12 -16 3 -17 -17
-48 14 -48 46 0 29 26 62 47 62 8 0 20 -13 26 -30z m-73 -125 c0 -6 -5 -16
-12 -23 -8 -8 -14 -5 -25 15 -19 37 -16 44 12 31 14 -6 25 -16 25 -23z m413
-113 c27 -28 35 -52 17 -52 -5 0 -19 -18 -30 -40 -19 -36 -22 -39 -46 -29 -50
19 -108 -18 -118 -77 -7 -36 -17 -42 -35 -20 -18 22 -83 4 -124 -34 -21 -18
-37 -39 -37 -47 0 -16 -16 -17 -26 -2 -4 7 13 28 38 50 33 28 53 57 73 106 16
37 39 79 51 92 21 22 26 23 50 13 27 -13 64 -8 64 9 0 19 49 59 73 59 13 0 35
-13 50 -28z m154 -46 c-4 -10 -1 -13 7 -10 7 3 18 -2 25 -10 7 -8 19 -12 27
-9 9 3 14 -2 14 -14 0 -34 -23 -53 -72 -59 -57 -8 -72 11 -40 51 12 14 18 34
15 45 -4 14 0 20 12 20 11 0 15 -5 12 -14z m-91 -40 c21 -21 18 -66 -4 -66
-10 0 -27 -7 -37 -15 -51 -40 -176 -125 -185 -125 -9 0 -1 71 9 80 3 3 11 14
17 25 6 11 19 20 28 20 9 0 21 7 27 15 8 13 11 13 20 -2 15 -26 32 -22 52 13
17 30 18 31 32 13 13 -18 14 -16 15 19 0 41 4 44 26 23z m-264 -191 c10 -11
17 -25 18 -31 0 -6 -43 -30 -95 -52 -78 -34 -100 -40 -121 -32 -14 6 -40 10
-57 10 -38 0 -65 14 -48 24 6 4 15 5 20 1 5 -3 12 -1 15 4 8 12 44 8 75 -8 22
-12 26 -11 42 10 10 13 26 41 35 62 17 38 34 49 34 22 0 -22 18 -18 25 4 7 23
31 18 57 -14z"/>
<path d="M930 850 c0 -5 5 -10 10 -10 6 0 10 5 10 10 0 6 -4 10 -10 10 -5 0
-10 -4 -10 -10z"/>
<path d="M392 287 c-29 -94 -28 -120 3 -38 30 81 37 111 28 111 -5 0 -18 -33
-31 -73z"/>
<path d="M1180 289 c0 -5 5 -7 10 -4 6 3 10 8 10 11 0 2 -4 4 -10 4 -5 0 -10
-5 -10 -11z"/>
<path d="M1005 220 c3 -5 8 -10 11 -10 2 0 4 5 4 10 0 6 -5 10 -11 10 -5 0 -7
-4 -4 -10z"/>
<path d="M943 163 c-39 -26 -28 -38 37 -38 59 -1 76 7 44 19 -9 3 -27 6 -41 6
-18 0 -24 4 -19 15 7 18 7 18 -21 -2z"/>
<path d="M341 143 c-1 -12 6 -29 15 -38 21 -21 32 -10 12 12 -9 10 -18 25 -21
33 -4 10 -6 8 -6 -7z"/>
</g>
</svg>
